<svg xmlns="http://www.w3.org/2000/svg" viewBox="0 0 240 240" role="img" aria-labelledby="title">
  <defs><filter id="symbol-depth" x="-25%" y="-25%" width="150%" height="160%"><feDropShadow dx="0" dy="3" stdDeviation="2.4" flood-color="#061C22" flood-opacity=".28"/></filter></defs>
  <title id="title">OUMATRA symbol</title><g transform="translate(0 18) scale(1 .85)" filter="url(#symbol-depth)">
  <path fill="#0E3D4A" d="M104 24C58 34 30 70 30 120s28 86 74 96C76 190 58 157 58 120s18-70 46-96Z"/>
  <path fill="#D08A6A" d="M136 24c46 10 74 46 74 96s-28 86-74 96c28-26 46-59 46-96s-18-70-46-96Z"/>
  <g fill="#0E3D4A">
    <rect x="80" y="112" width="4" height="16" rx="2"/><rect x="89" y="102" width="4" height="36" rx="2"/><rect x="98" y="88" width="4" height="64" rx="2"/><rect x="107" y="68" width="4" height="104" rx="2"/><rect x="116" y="38" width="4" height="164" rx="2"/>
  </g>
  <g fill="#D08A6A">
    <rect x="124" y="58" width="4" height="124" rx="2"/><rect x="133" y="78" width="4" height="84" rx="2"/><rect x="142" y="96" width="4" height="48" rx="2"/><rect x="151" y="110" width="4" height="20" rx="2"/>
  </g>
  <circle cx="120" cy="12" r="4" fill="#0E3D4A"/><circle cx="120" cy="228" r="4" fill="#0E3D4A"/></g>
</svg>
